<?xml version="1.0" standalone="no"?>
<!DOCTYPE svg PUBLIC "-//W3C//DTD SVG 20010904//EN"
 "http://www.w3.org/TR/2001/REC-SVG-20010904/DTD/svg10.dtd">
<svg version="1.0" xmlns="http://www.w3.org/2000/svg"
 width="942.000000pt" height="942.000000pt" viewBox="0 0 942.000000 942.000000"
 preserveAspectRatio="xMidYMid meet">

<g transform="translate(0.000000,942.000000) scale(0.100000,-0.100000)"
fill="#000000" stroke="none">
<path d="M2845 8846 c-123 -31 -290 -117 -391 -203 -67 -56 -178 -211 -242
-338 -139 -276 -231 -685 -232 -1033 0 -90 -1 -95 -37 -150 -49 -77 -139 -242
-148 -272 -4 -14 -13 -38 -20 -55 -59 -138 -142 -394 -185 -570 -59 -242 -78
-417 -88 -789 -5 -207 -12 -321 -18 -323 -26 -9 -312 -232 -413 -323 -298
-267 -447 -446 -582 -695 -83 -153 -153 -320 -186 -443 -24 -86 -27 -117 -27
-267 -1 -154 2 -180 26 -273 57 -216 186 -374 413 -505 102 -59 171 -82 320
-108 284 -50 459 17 739 281 58 54 160 196 185 258 7 18 16 32 20 32 3 -1 46
-89 95 -196 154 -338 284 -540 468 -729 l78 -80 -20 -150 c-35 -262 -41 -373
-31 -645 14 -383 46 -508 171 -674 39 -51 63 -70 141 -113 109 -60 207 -99
276 -109 26 -3 53 -10 59 -15 38 -30 241 -54 544 -65 164 -6 256 7 489 66 165
42 255 128 268 255 9 82 -4 137 -49 211 -27 44 -43 83 -45 109 -1 22 -6 90
-11 150 -5 61 -7 128 -4 151 l4 41 226 -5 c125 -2 229 -7 232 -9 3 -3 5 -107
5 -231 0 -198 -2 -233 -19 -274 -14 -35 -17 -65 -14 -122 3 -64 8 -81 34 -118
61 -87 145 -134 329 -184 141 -38 202 -44 413 -45 163 0 226 4 366 25 438 67
621 162 695 360 33 89 43 199 43 456 0 265 -11 429 -47 670 l-23 155 37 40
c101 108 235 295 335 469 86 149 201 407 333 751 115 296 151 407 184 552 l23
103 45 17 c93 35 394 200 491 269 25 18 81 54 125 81 186 115 528 419 632 563
200 277 266 418 309 665 26 149 4 353 -56 504 -32 81 -89 158 -191 256 -111
107 -181 147 -317 181 -196 49 -370 25 -565 -78 -76 -40 -222 -178 -288 -271
l-47 -68 -17 78 c-55 258 -152 570 -216 693 -45 87 -162 273 -249 393 l-35 49
-2 236 c-4 387 -57 656 -174 890 -99 199 -195 311 -335 394 -206 123 -473 134
-732 32 -136 -54 -304 -188 -379 -303 -36 -55 -39 -57 -68 -49 -52 14 -294 56
-450 78 -118 17 -218 23 -465 27 -326 6 -425 -1 -699 -44 l-103 -16 -36 44
c-62 75 -123 128 -241 206 -138 91 -194 117 -311 143 -103 23 -266 26 -345 6z
m363 -81 c66 -16 146 -52 197 -89 17 -12 48 -32 70 -45 95 -55 238 -195 257
-252 3 -9 37 -6 128 9 274 47 384 55 715 49 171 -3 324 -8 340 -11 17 -2 55
-7 85 -11 91 -10 410 -64 491 -83 l77 -19 20 41 c58 120 207 256 352 323 112
51 180 66 330 70 134 4 151 3 223 -20 195 -63 320 -176 435 -397 69 -131 80
-159 116 -290 47 -173 67 -349 68 -598 0 -246 5 -275 57 -340 63 -81 192 -285
240 -380 86 -172 223 -668 248 -900 l8 -74 69 137 c61 122 79 148 160 233 102
106 160 148 268 191 144 57 276 67 417 32 133 -33 206 -78 318 -195 110 -114
151 -183 183 -308 77 -305 -1 -609 -243 -945 -138 -191 -434 -464 -652 -600
-44 -27 -129 -81 -190 -120 -123 -78 -350 -198 -434 -228 l-55 -20 -27 -121
c-34 -151 -81 -294 -198 -594 -236 -605 -410 -919 -650 -1173 l-54 -57 11 -68
c6 -37 14 -89 17 -117 3 -27 10 -72 15 -100 31 -163 44 -727 21 -885 -16 -106
-67 -209 -123 -250 -118 -87 -324 -150 -598 -185 -170 -22 -471 -22 -587 0
-97 18 -228 57 -274 80 -51 26 -118 83 -134 115 -20 38 -19 133 0 171 23 43
32 329 15 480 l-12 116 -267 6 c-146 3 -278 8 -293 11 l-26 6 -4 -82 c-3 -74
3 -201 17 -357 3 -40 14 -68 38 -105 46 -69 60 -117 55 -186 -7 -104 -78 -167
-233 -207 -209 -54 -300 -65 -455 -59 -322 12 -453 28 -516 61 -16 8 -41 15
-55 15 -47 0 -133 31 -242 88 -88 46 -115 66 -147 107 -119 156 -147 264 -161
625 -5 135 -7 286 -3 335 6 97 52 474 59 485 2 3 -34 44 -81 91 -92 90 -245
290 -311 404 -76 132 -229 455 -320 675 -9 22 -12 18 -32 -50 -38 -123 -123
-262 -221 -361 -215 -216 -383 -299 -575 -285 -145 11 -259 40 -363 92 -223
112 -369 277 -423 479 -32 120 -37 330 -11 456 43 207 194 520 356 736 165
220 444 474 825 751 24 17 24 18 32 297 11 402 17 479 43 638 37 216 78 365
171 617 32 85 64 172 71 192 15 40 90 179 155 286 38 63 39 65 39 166 1 349
83 721 221 1002 57 117 162 268 223 320 93 81 279 174 386 195 62 11 252 2
328 -16z"/>
<path d="M2850 8701 c-107 -36 -220 -96 -297 -158 -56 -45 -154 -182 -214
-300 -60 -117 -150 -390 -179 -538 -23 -119 -39 -311 -40 -468 l0 -99 -54 -87
c-104 -169 -190 -360 -264 -591 -113 -351 -140 -508 -153 -905 -5 -165 -12
-349 -15 -410 l-6 -110 -72 -47 c-192 -126 -362 -268 -579 -482 -171 -169
-258 -284 -371 -493 -142 -265 -196 -442 -196 -644 0 -157 30 -273 100 -389
86 -143 283 -282 464 -328 115 -29 236 -38 305 -23 169 36 408 225 517 408 57
96 121 264 146 386 7 31 15 57 19 57 3 0 14 -21 24 -47 49 -132 209 -492 301
-677 109 -220 249 -414 401 -555 l89 -83 -13 -62 c-49 -243 -65 -587 -42 -936
9 -144 15 -177 44 -264 19 -55 48 -120 66 -146 87 -127 336 -215 754 -266 227
-27 392 -13 623 53 73 21 102 35 134 65 40 37 40 38 36 97 -3 47 -11 70 -40
112 -20 30 -41 72 -47 94 -16 61 -29 305 -23 448 l4 128 37 -5 c111 -17 268
-26 465 -26 l222 0 10 -127 c6 -71 9 -219 8 -330 -2 -165 -6 -208 -19 -234
-21 -40 -22 -92 -1 -124 42 -65 187 -124 351 -144 152 -19 520 -14 665 9 258
40 441 111 502 194 59 82 63 114 62 506 -1 364 -14 541 -60 769 l-14 74 68 71
c221 231 385 512 577 986 177 438 228 588 274 803 l26 118 80 28 c111 39 391
190 515 277 25 17 76 50 113 73 193 117 485 384 619 566 244 330 321 657 222
947 -33 98 -70 152 -172 250 -134 129 -259 176 -437 165 -171 -10 -282 -64
-421 -201 -92 -92 -106 -112 -161 -221 -34 -66 -86 -178 -118 -250 -31 -71
-60 -134 -65 -138 -4 -5 -10 36 -14 90 -22 314 -50 477 -127 748 -54 189 -95
307 -132 379 -36 71 -158 262 -229 359 -73 99 -78 122 -78 391 0 366 -45 596
-159 825 -90 178 -167 268 -291 338 -125 71 -247 91 -400 68 -126 -18 -226
-57 -324 -125 -123 -85 -212 -196 -250 -312 -5 -16 -9 -16 -62 2 -108 38 -475
100 -699 119 -178 16 -552 13 -723 -4 -81 -9 -212 -27 -291 -40 -79 -14 -145
-24 -146 -23 -1 2 -15 28 -31 58 -16 30 -53 78 -83 107 -53 53 -207 160 -289
202 -115 59 -329 79 -442 42z m2110 -426 c224 -28 473 -76 576 -110 119 -39
492 -214 613 -287 215 -130 330 -221 532 -419 128 -127 215 -230 356 -424 196
-270 272 -413 344 -653 119 -393 151 -616 152 -1062 1 -288 -7 -412 -38 -615
-67 -441 -89 -579 -106 -642 -10 -40 -30 -126 -44 -191 -34 -159 -95 -344
-220 -657 -163 -412 -251 -596 -369 -775 -110 -166 -237 -325 -304 -377 -38
-31 -46 -33 -119 -33 -104 0 -504 -69 -663 -115 -167 -48 -277 -103 -446 -223
-133 -95 -178 -135 -215 -192 -16 -24 -20 -25 -155 -28 -153 -4 -422 11 -532
29 -52 9 -73 17 -77 29 -12 37 -225 214 -356 297 -187 117 -288 163 -490 221
-231 67 -303 82 -434 89 l-109 6 -104 101 c-184 178 -310 354 -417 581 -96
201 -197 429 -240 540 -97 246 -117 304 -169 488 -85 299 -92 328 -145 557
-66 291 -76 426 -67 887 12 627 34 770 183 1213 36 107 75 217 88 245 55 126
270 454 406 621 114 140 407 384 654 546 113 73 316 182 420 224 116 47 367
100 610 129 72 8 146 17 165 19 81 10 600 -4 720 -19z"/>
<path d="M3584 6810 c-175 -26 -418 -163 -571 -323 -102 -108 -229 -299 -265
-399 -73 -206 -84 -400 -32 -558 47 -141 134 -210 327 -260 77 -19 102 -21
195 -15 59 4 138 13 177 21 236 49 493 188 660 358 77 77 99 109 153 211 76
145 93 210 94 364 0 144 -20 248 -73 357 -83 175 -242 256 -498 253 -64 -1
-139 -5 -167 -9z m319 -292 c31 -15 81 -50 111 -78 233 -221 150 -605 -153
-705 -85 -28 -210 -18 -293 23 -82 40 -159 120 -201 209 -30 63 -32 76 -32
173 0 97 2 110 32 172 52 110 139 189 246 224 27 9 76 13 137 11 78 -2 105 -8
153 -29z"/>
<path d="M3671 6475 c-70 -20 -107 -43 -163 -103 -65 -69 -91 -144 -86 -247 3
-52 12 -97 26 -127 29 -66 104 -143 171 -175 75 -36 200 -39 274 -5 71 32 140
102 173 175 40 89 40 196 0 284 -69 152 -244 239 -395 198z m41 -152 c28 -25
23 -70 -11 -104 -35 -34 -72 -38 -101 -9 -65 65 44 175 112 113z"/>
<path d="M5220 6805 c-197 -55 -327 -204 -366 -419 -15 -82 -15 -98 0 -213 29
-216 99 -364 261 -555 118 -138 154 -172 245 -230 81 -52 144 -82 245 -117
216 -73 473 -69 679 12 189 74 297 250 283 460 -7 116 -43 259 -87 352 -84
176 -319 437 -475 529 -245 143 -378 186 -595 192 -100 3 -149 0 -190 -11z
m331 -271 c131 -39 233 -139 279 -275 19 -53 21 -79 17 -156 -4 -79 -9 -103
-37 -160 -127 -258 -458 -309 -655 -102 -125 131 -155 310 -80 476 26 58 99
142 152 174 89 55 222 73 324 43z"/>
<path d="M5363 6470 c-180 -36 -303 -239 -248 -411 80 -250 369 -329 544 -149
66 69 86 120 86 230 0 79 -4 103 -23 141 -68 138 -217 217 -359 189z m-5 -161
c37 -13 46 -41 27 -86 -23 -54 -81 -68 -120 -28 -33 32 -31 60 4 96 32 32 43
34 89 18z"/>
<path d="M4465 5760 c-129 -19 -185 -99 -141 -203 16 -38 141 -158 190 -181
42 -20 122 -21 167 -2 46 19 106 64 154 114 54 58 64 79 65 136 0 43 -4 53
-37 86 -32 31 -49 39 -104 49 -72 12 -215 13 -294 1z"/>
<path d="M4152 5154 c35 -60 128 -149 186 -178 70 -36 161 -63 248 -75 116
-17 303 22 409 84 47 27 140 124 169 176 18 31 14 29 -41 -22 -72 -66 -131
-102 -228 -136 -57 -21 -94 -27 -203 -31 -83 -3 -157 0 -195 8 -94 18 -232 88
-305 155 -61 56 -62 56 -40 19z"/>
</g>
</svg>
